<mxfile host="app.diagrams.net" modified="2023-08-15T09:23:18.287Z" agent="Mozilla/5.0 (Windows NT 10.0; Win64; x64) AppleWebKit/537.36 (KHTML, like Gecko) Chrome/115.0.0.0 Safari/537.36" etag="pRs-5vcc01cEycTJzXJo" version="21.6.8" type="github">
  <diagram name="第 1 页" id="bUYPXVHY6qEtTD3wjHq3">
    <mxGraphModel dx="2261" dy="1927" grid="1" gridSize="10" guides="1" tooltips="1" connect="1" arrows="1" fold="1" page="1" pageScale="1" pageWidth="827" pageHeight="1169" math="0" shadow="0">
      <root>
        <mxCell id="0" />
        <mxCell id="1" parent="0" />
        <mxCell id="woWX3H5pv6czB2cQM8_J-5" value="数据采集" style="rounded=0;whiteSpace=wrap;html=1;" vertex="1" parent="1">
          <mxGeometry x="-10" y="1820" width="120" height="60" as="geometry" />
        </mxCell>
        <mxCell id="woWX3H5pv6czB2cQM8_J-6" value="实时数据" style="rounded=0;whiteSpace=wrap;html=1;" vertex="1" parent="1">
          <mxGeometry x="210" y="1840" width="120" height="60" as="geometry" />
        </mxCell>
        <mxCell id="woWX3H5pv6czB2cQM8_J-7" value="离线数据" style="rounded=0;whiteSpace=wrap;html=1;" vertex="1" parent="1">
          <mxGeometry x="380" y="1840" width="120" height="60" as="geometry" />
        </mxCell>
        <mxCell id="woWX3H5pv6czB2cQM8_J-8" value="系统数据" style="rounded=0;whiteSpace=wrap;html=1;" vertex="1" parent="1">
          <mxGeometry x="540" y="1840" width="120" height="60" as="geometry" />
        </mxCell>
        <mxCell id="woWX3H5pv6czB2cQM8_J-9" value="结构化数据" style="rounded=0;whiteSpace=wrap;html=1;" vertex="1" parent="1">
          <mxGeometry x="960" y="1840" width="120" height="60" as="geometry" />
        </mxCell>
        <mxCell id="woWX3H5pv6czB2cQM8_J-10" value="非结构化数据" style="rounded=0;whiteSpace=wrap;html=1;" vertex="1" parent="1">
          <mxGeometry x="1141" y="1830" width="120" height="60" as="geometry" />
        </mxCell>
        <mxCell id="woWX3H5pv6czB2cQM8_J-11" value="数据治理" style="rounded=0;whiteSpace=wrap;html=1;" vertex="1" parent="1">
          <mxGeometry x="220" y="1450" width="120" height="60" as="geometry" />
        </mxCell>
        <mxCell id="woWX3H5pv6czB2cQM8_J-12" value="数据标准管理" style="rounded=0;whiteSpace=wrap;html=1;" vertex="1" parent="1">
          <mxGeometry x="160" y="1530" width="120" height="60" as="geometry" />
        </mxCell>
        <mxCell id="woWX3H5pv6czB2cQM8_J-13" value="数据安全管理" style="rounded=0;whiteSpace=wrap;html=1;" vertex="1" parent="1">
          <mxGeometry x="314" y="1530" width="120" height="60" as="geometry" />
        </mxCell>
        <mxCell id="woWX3H5pv6czB2cQM8_J-14" value="数据质量管理" style="rounded=0;whiteSpace=wrap;html=1;" vertex="1" parent="1">
          <mxGeometry x="160" y="1610" width="120" height="60" as="geometry" />
        </mxCell>
        <mxCell id="woWX3H5pv6czB2cQM8_J-15" value="原数据管理" style="rounded=0;whiteSpace=wrap;html=1;" vertex="1" parent="1">
          <mxGeometry x="314" y="1610" width="120" height="60" as="geometry" />
        </mxCell>
        <mxCell id="woWX3H5pv6czB2cQM8_J-18" value="数据传输" style="rounded=0;whiteSpace=wrap;html=1;" vertex="1" parent="1">
          <mxGeometry x="390" y="1730" width="120" height="60" as="geometry" />
        </mxCell>
        <mxCell id="woWX3H5pv6czB2cQM8_J-20" value="ETL" style="rounded=0;whiteSpace=wrap;html=1;" vertex="1" parent="1">
          <mxGeometry x="580" y="1450" width="120" height="60" as="geometry" />
        </mxCell>
        <mxCell id="woWX3H5pv6czB2cQM8_J-21" value="数据清洗" style="rounded=0;whiteSpace=wrap;html=1;" vertex="1" parent="1">
          <mxGeometry x="500" y="1530" width="120" height="60" as="geometry" />
        </mxCell>
        <mxCell id="woWX3H5pv6czB2cQM8_J-22" value="数据抽取" style="rounded=0;whiteSpace=wrap;html=1;" vertex="1" parent="1">
          <mxGeometry x="650" y="1530" width="120" height="60" as="geometry" />
        </mxCell>
        <mxCell id="woWX3H5pv6czB2cQM8_J-23" value="数据转换" style="rounded=0;whiteSpace=wrap;html=1;" vertex="1" parent="1">
          <mxGeometry x="500" y="1620" width="120" height="60" as="geometry" />
        </mxCell>
        <mxCell id="woWX3H5pv6czB2cQM8_J-24" value="数据建模" style="rounded=0;whiteSpace=wrap;html=1;" vertex="1" parent="1">
          <mxGeometry x="650" y="1620" width="120" height="60" as="geometry" />
        </mxCell>
        <mxCell id="woWX3H5pv6czB2cQM8_J-25" value="数据集市" style="rounded=0;whiteSpace=wrap;html=1;" vertex="1" parent="1">
          <mxGeometry x="1021" y="1450" width="120" height="60" as="geometry" />
        </mxCell>
        <mxCell id="woWX3H5pv6czB2cQM8_J-26" value="独立型" style="rounded=0;whiteSpace=wrap;html=1;" vertex="1" parent="1">
          <mxGeometry x="830" y="1530" width="120" height="60" as="geometry" />
        </mxCell>
        <mxCell id="woWX3H5pv6czB2cQM8_J-27" value="从属型" style="rounded=0;whiteSpace=wrap;html=1;" vertex="1" parent="1">
          <mxGeometry x="970" y="1530" width="120" height="60" as="geometry" />
        </mxCell>
        <mxCell id="woWX3H5pv6czB2cQM8_J-28" value="混合型" style="rounded=0;whiteSpace=wrap;html=1;" vertex="1" parent="1">
          <mxGeometry x="1110" y="1530" width="120" height="60" as="geometry" />
        </mxCell>
        <mxCell id="woWX3H5pv6czB2cQM8_J-29" value="主题1-N" style="rounded=0;whiteSpace=wrap;html=1;" vertex="1" parent="1">
          <mxGeometry x="1250" y="1530" width="120" height="60" as="geometry" />
        </mxCell>
        <mxCell id="woWX3H5pv6czB2cQM8_J-30" value="数据中心" style="rounded=0;whiteSpace=wrap;html=1;" vertex="1" parent="1">
          <mxGeometry x="30" y="1260" width="120" height="60" as="geometry" />
        </mxCell>
        <mxCell id="woWX3H5pv6czB2cQM8_J-31" value="数据仓库" style="rounded=0;whiteSpace=wrap;html=1;" vertex="1" parent="1">
          <mxGeometry x="210" y="1260" width="120" height="60" as="geometry" />
        </mxCell>
        <mxCell id="woWX3H5pv6czB2cQM8_J-32" value="对象存储" style="rounded=0;whiteSpace=wrap;html=1;" vertex="1" parent="1">
          <mxGeometry x="350" y="1260" width="120" height="60" as="geometry" />
        </mxCell>
        <mxCell id="woWX3H5pv6czB2cQM8_J-33" value="多源数据融合" style="rounded=0;whiteSpace=wrap;html=1;" vertex="1" parent="1">
          <mxGeometry x="500" y="1260" width="120" height="60" as="geometry" />
        </mxCell>
        <mxCell id="woWX3H5pv6czB2cQM8_J-34" value="批量数据交换" style="rounded=0;whiteSpace=wrap;html=1;" vertex="1" parent="1">
          <mxGeometry x="641" y="1260" width="120" height="60" as="geometry" />
        </mxCell>
        <mxCell id="woWX3H5pv6czB2cQM8_J-35" value="业务数据" style="rounded=0;whiteSpace=wrap;html=1;" vertex="1" parent="1">
          <mxGeometry x="740" y="1840" width="120" height="60" as="geometry" />
        </mxCell>
        <mxCell id="woWX3H5pv6czB2cQM8_J-37" value="孪生平台" style="rounded=0;whiteSpace=wrap;html=1;" vertex="1" parent="1">
          <mxGeometry x="-150" y="-140" width="360" height="340" as="geometry" />
        </mxCell>
        <mxCell id="woWX3H5pv6czB2cQM8_J-39" value="数据处理" style="rounded=0;whiteSpace=wrap;html=1;" vertex="1" parent="1">
          <mxGeometry x="-10" y="1550" width="120" height="60" as="geometry" />
        </mxCell>
        <mxCell id="woWX3H5pv6czB2cQM8_J-40" value="数据传输" style="rounded=0;whiteSpace=wrap;html=1;" vertex="1" parent="1">
          <mxGeometry x="410" y="1360" width="120" height="60" as="geometry" />
        </mxCell>
        <mxCell id="woWX3H5pv6czB2cQM8_J-42" value="大数据中心" style="rounded=0;whiteSpace=wrap;html=1;" vertex="1" parent="1">
          <mxGeometry x="-149" y="-330" width="489" height="130" as="geometry" />
        </mxCell>
        <mxCell id="woWX3H5pv6czB2cQM8_J-43" value="数据仓库" style="rounded=0;whiteSpace=wrap;html=1;" vertex="1" parent="1">
          <mxGeometry x="-110" y="-270" width="120" height="60" as="geometry" />
        </mxCell>
        <mxCell id="woWX3H5pv6czB2cQM8_J-44" value="数据湖" style="rounded=0;whiteSpace=wrap;html=1;" vertex="1" parent="1">
          <mxGeometry x="150" y="-270" width="120" height="60" as="geometry" />
        </mxCell>
        <mxCell id="woWX3H5pv6czB2cQM8_J-45" value="工厂数据集成" style="rounded=0;whiteSpace=wrap;html=1;" vertex="1" parent="1">
          <mxGeometry x="-60" y="290" width="120" height="60" as="geometry" />
        </mxCell>
        <mxCell id="woWX3H5pv6czB2cQM8_J-46" value="制丝集控系统" style="rounded=0;whiteSpace=wrap;html=1;" vertex="1" parent="1">
          <mxGeometry x="314" y="-170" width="120" height="60" as="geometry" />
        </mxCell>
        <mxCell id="woWX3H5pv6czB2cQM8_J-47" value="离散物料系统" style="rounded=0;whiteSpace=wrap;html=1;" vertex="1" parent="1">
          <mxGeometry x="315" y="-30" width="120" height="60" as="geometry" />
        </mxCell>
        <mxCell id="woWX3H5pv6czB2cQM8_J-48" value="霉变科研系统" style="rounded=0;whiteSpace=wrap;html=1;" vertex="1" parent="1">
          <mxGeometry x="315" y="40" width="120" height="60" as="geometry" />
        </mxCell>
        <mxCell id="woWX3H5pv6czB2cQM8_J-49" value="风选梗签科研系统" style="rounded=0;whiteSpace=wrap;html=1;" vertex="1" parent="1">
          <mxGeometry x="314" y="110" width="120" height="60" as="geometry" />
        </mxCell>
        <mxCell id="woWX3H5pv6czB2cQM8_J-50" value="设备运维管理系统" style="rounded=0;whiteSpace=wrap;html=1;" vertex="1" parent="1">
          <mxGeometry x="315" y="170" width="120" height="60" as="geometry" />
        </mxCell>
        <mxCell id="woWX3H5pv6czB2cQM8_J-51" value="香糖料房系统" style="rounded=0;whiteSpace=wrap;html=1;" vertex="1" parent="1">
          <mxGeometry x="314" y="-100" width="120" height="60" as="geometry" />
        </mxCell>
        <mxCell id="woWX3H5pv6czB2cQM8_J-53" value="数据传输" style="rounded=0;whiteSpace=wrap;html=1;" vertex="1" parent="1">
          <mxGeometry x="189" y="-520" width="120" height="60" as="geometry" />
        </mxCell>
        <mxCell id="woWX3H5pv6czB2cQM8_J-54" value="数据治理" style="rounded=0;whiteSpace=wrap;html=1;" vertex="1" parent="1">
          <mxGeometry x="-20" y="-530" width="120" height="60" as="geometry" />
        </mxCell>
        <mxCell id="woWX3H5pv6czB2cQM8_J-55" value="ETL" style="rounded=0;whiteSpace=wrap;html=1;" vertex="1" parent="1">
          <mxGeometry x="380" y="-520" width="120" height="60" as="geometry" />
        </mxCell>
        <mxCell id="woWX3H5pv6czB2cQM8_J-56" value="数据集市" style="rounded=0;whiteSpace=wrap;html=1;" vertex="1" parent="1">
          <mxGeometry x="670" y="-530" width="120" height="60" as="geometry" />
        </mxCell>
      </root>
    </mxGraphModel>
  </diagram>
</mxfile>
